<svg height="512pt" viewBox="0 0 512.003 512" width="512pt" xmlns="http://www.w3.org/2000/svg"><g fill-rule="evenodd"><path d="m7.527344 171.898438c0 10.105468 8.285156 18.386718 18.390625 18.386718h30.34375l18.078125-17.5625-18.078125-19.214844h-30.34375c-10.105469 0-18.390625 8.253907-18.390625 18.390626zm0 0" fill="#3f4c63"/><path d="m7.527344 255.988281c0 10.132813 8.285156 18.417969 18.390625 18.417969h30.34375l18.078125-19.585938-18.078125-17.222656h-30.34375c-10.105469 0-18.390625 8.285156-18.390625 18.390625zm0 0" fill="#3f4c63"/><path d="m7.527344 340.105469c0 10.105469 8.285156 18.390625 18.390625 18.390625h30.34375l18.078125-19.300782-18.078125-17.507812h-30.34375c-10.105469 0-18.390625 8.285156-18.390625 18.417969zm0 0" fill="#3f4c63"/><path d="m153.507812 455.738281v30.34375c0 10.105469 8.253907 18.390625 18.386719 18.390625 10.105469 0 18.390625-8.285156 18.390625-18.390625v-30.34375l-17.765625-24.28125zm0 0" fill="#3f4c63"/><path d="m237.597656 455.738281v30.34375c0 10.105469 8.28125 18.390625 18.386719 18.390625 10.132813 0 18.417969-8.285156 18.417969-18.390625v-30.34375l-22.515625-25.109375zm0 0" fill="#3f4c63"/><path d="m321.6875 486.082031c0 10.105469 8.285156 18.390625 18.417969 18.390625 10.105469 0 18.386719-8.285156 18.386719-18.390625v-30.34375l-21.890626-27.101562-14.914062 27.101562zm0 0" fill="#3f4c63"/><path d="m455.734375 321.6875-18.332031 18.417969 18.332031 18.390625h30.347656c10.105469 0 18.386719-8.285156 18.386719-18.390625 0-10.132813-8.28125-18.417969-18.386719-18.417969zm0 0" fill="#3f4c63"/><path d="m455.734375 274.40625h30.347656c10.105469 0 18.386719-8.285156 18.386719-18.417969 0-10.105469-8.28125-18.390625-18.386719-18.390625h-30.347656l-18.074219 20.242188zm0 0" fill="#3f4c63"/><path d="m455.734375 153.507812-18.703125 15.855469 18.703125 20.921875h30.347656c10.105469 0 18.386719-8.28125 18.386719-18.386718 0-10.136719-8.28125-18.390626-18.386719-18.390626zm0 0" fill="#3f4c63"/><path d="m321.6875 25.921875v30.34375l15.65625 13.550781 21.152344-13.550781v-30.34375c0-10.105469-8.285156-18.390625-18.390625-18.390625-10.136719 0-18.417969 8.285156-18.417969 18.390625zm0 0" fill="#3f4c63"/><path d="m237.597656 56.265625 15.742188 14.917969 21.0625-14.917969v-30.34375c0-10.105469-8.285156-18.390625-18.417969-18.390625-10.105469 0-18.386719 8.285156-18.386719 18.390625zm0 0" fill="#3f4c63"/><path d="m153.507812 25.921875v30.34375l19.015626 14.917969 17.761718-14.917969v-30.34375c0-10.105469-8.285156-18.390625-18.390625-18.390625-10.132812 0-18.386719 8.285156-18.386719 18.390625zm0 0" fill="#3f4c63"/><path d="m56.265625 87.4375v337.128906c0 17.136719 14.003906 31.171875 31.167969 31.171875h337.128906c17.136719 0 31.171875-14.035156 31.171875-31.171875v-337.128906c0-17.164062-14.035156-31.171875-31.171875-31.171875h-337.128906c-17.164063 0-31.167969 14.007813-31.167969 31.171875zm0 0" fill="#55cf63"/><path d="m128.113281 363.90625c0 10.984375 8.996094 19.980469 19.957031 19.980469 71.960938-.027344 143.898438-.027344 215.832032 0 10.988281 0 19.984375-8.992188 19.984375-19.980469-.027344-71.9375-.027344-143.871094 0-215.835938 0-10.960937-8.996094-19.953124-19.984375-19.953124h-17.847656c-60.035157 0-120.074219 0-180.136719 0h-17.851563c-10.957031 0-19.953125 8.992187-19.953125 19.953124zm0 0" fill="#e6e6e6"/><path d="m56.265625 153.507812v271.058594c0 17.136719 14.003906 31.171875 31.167969 31.171875h24.285156c-17.140625 0-31.171875-14.035156-31.171875-31.171875v-337.128906c0-17.164062 14.03125-31.171875 31.171875-31.171875h-24.285156c-17.164063 0-31.167969 14.007813-31.167969 31.171875zm0 0" fill="#32a352"/><path d="m128.113281 209.984375v46.003906 46 44.066407 17.851562c0 10.984375 8.996094 19.980469 19.957031 19.980469h5.066407c6.289062 0 12.582031 0 18.871093-.027344-10.902343-.054687-19.8125-9.023437-19.8125-19.953125 0-71.9375 0-143.871094 0-215.835938 0-10.957031 8.996094-19.953124 19.957032-19.953124h-24.085938c-10.957031 0-19.953125 8.996093-19.953125 19.953124v17.851563zm0 0" fill="#b3b3b3"/><path d="m178.558594 190.65625v130.691406c0 6.632813 5.433594 12.070313 12.097656 12.070313h130.6875c6.632812 0 12.070312-5.4375 12.070312-12.070313v-130.691406c0-6.660156-5.4375-12.097656-12.070312-12.097656-43.554688 0-87.132812 0-130.6875 0-6.664062 0-12.097656 5.4375-12.097656 12.097656zm0 0" fill="#b3b3b3"/><path d="m178.558594 190.65625v130.691406c0 6.632813 5.433594 12.070313 12.097656 12.070313h23.738281c-6.632812 0-12.070312-5.4375-12.070312-12.070313v-130.691406c0-6.605469 5.382812-12.039062 11.984375-12.097656h-23.65625c-6.660156 0-12.09375 5.4375-12.09375 12.097656zm0 0" fill="#888b99"/></g><path d="m486.082031 281.933594c14.289063 0 25.917969-11.640625 25.917969-25.945313 0-14.292969-11.628906-25.921875-25.917969-25.921875h-22.816406v-32.25h22.816406c14.289063 0 25.917969-11.628906 25.917969-25.917968 0-14.292969-11.628906-25.921876-25.917969-25.921876h-22.816406v-58.539062c0-21.339844-17.363281-38.703125-38.703125-38.703125h-58.539062v-22.8125c0-14.292969-11.628907-25.921875-25.917969-25.921875-14.308594 0-25.949219 11.628906-25.949219 25.921875v22.816406h-32.222656v-22.816406c0-14.292969-11.640625-25.921875-25.949219-25.921875-14.289063 0-25.917969 11.628906-25.917969 25.921875v22.816406h-32.253906v-22.816406c0-14.292969-11.625-25.921875-25.917969-25.921875-14.289062 0-25.917969 11.628906-25.917969 25.921875v22.816406h-58.542968c-21.335938 0-38.699219 17.359375-38.699219 38.699219v58.542969h-22.816406c-14.289063-.003907-25.917969 11.625-25.917969 25.917969 0 14.292968 11.628906 25.917968 25.917969 25.917968h22.816406v32.253906h-22.816406c-14.289063 0-25.917969 11.625-25.917969 25.917969 0 14.304688 11.628906 25.945313 25.917969 25.945313h22.816406v32.226562h-22.816406c-14.289063 0-25.917969 11.636719-25.917969 25.945313 0 14.292969 11.628906 25.917969 25.917969 25.917969h22.816406v58.542968c0 21.339844 17.363281 38.699219 38.703125 38.699219h58.539062v22.816406c0 14.292969 11.628907 25.921875 25.921876 25.921875 14.289062 0 25.917968-11.628906 25.917968-25.921875v-22.816406h32.25v22.816406c0 14.292969 11.628906 25.921875 25.921875 25.921875 14.308594 0 25.945313-11.628906 25.945313-25.921875v-22.816406h32.226562v22.816406c0 14.292969 11.640625 25.921875 25.945313 25.921875 14.292969 0 25.917969-11.628906 25.917969-25.921875v-22.816406h58.542968c21.339844 0 38.703125-17.359375 38.703125-38.699219v-58.542968h22.816407c14.289062 0 25.917968-11.625 25.917968-25.917969 0-14.308594-11.628906-25.945313-25.917968-25.945313h-22.816407v-32.226562zm0-36.808594c5.988281 0 10.859375 4.875 10.859375 10.863281 0 6.003907-4.871094 10.886719-10.859375 10.886719h-22.816406v-21.75zm0-84.085938c5.988281 0 10.859375 4.871094 10.859375 10.859376 0 5.988281-4.871094 10.859374-10.859375 10.859374h-22.816406v-21.71875zm-156.867187-135.117187c0-5.992187 4.886718-10.863281 10.890625-10.863281 5.988281 0 10.859375 4.871094 10.859375 10.863281v22.816406h-21.75zm-84.089844 0c0-5.992187 4.871094-10.863281 10.859375-10.863281 6.003906 0 10.890625 4.871094 10.890625 10.863281v22.816406h-21.75zm-84.089844 0c0-5.992187 4.871094-10.863281 10.859375-10.863281 5.992188 0 10.863281 4.871094 10.863281 10.863281v22.816406h-21.722656zm-135.117187 156.835937c-5.988281 0-10.859375-4.871093-10.859375-10.859374 0-5.988282 4.871094-10.859376 10.859375-10.859376h22.816406v21.71875zm0 84.117188c-5.988281 0-10.859375-4.882812-10.859375-10.886719 0-5.988281 4.871094-10.859375 10.859375-10.859375h22.816406v21.746094zm0 84.089844c-5.988281 0-10.859375-4.871094-10.859375-10.859375 0-6.003907 4.871094-10.886719 10.859375-10.886719h22.816406v21.746094zm156.839843 135.117187c0 5.988281-4.875 10.859375-10.863281 10.859375s-10.859375-4.871094-10.859375-10.859375v-22.816406h21.722656zm84.117188 0c0 5.988281-4.886719 10.859375-10.890625 10.859375-5.988281 0-10.859375-4.871094-10.859375-10.859375v-22.816406h21.75zm84.089844 0c0 5.988281-4.871094 10.859375-10.859375 10.859375-6.003907 0-10.890625-4.871094-10.890625-10.859375v-22.816406h21.75zm97.242187-61.515625c0 13.035156-10.605469 23.640625-23.640625 23.640625h-337.132812c-13.035156 0-23.640625-10.605469-23.640625-23.640625v-337.128906c0-13.035156 10.605469-23.644531 23.640625-23.644531h337.128906c13.039062 0 23.644531 10.609375 23.644531 23.644531zm37.875-95.347656c5.988281 0 10.859375 4.882812 10.859375 10.886719 0 5.988281-4.871094 10.859375-10.859375 10.859375h-22.816406v-21.746094zm0 0"/><path d="m321.34375 171.03125h-54.570312c-4.160157 0-7.527344 3.371094-7.527344 7.527344s3.371094 7.527344 7.527344 7.527344h54.570312c2.460938 0 4.542969 2.09375 4.542969 4.570312v130.691406c0 2.460938-2.082031 4.539063-4.542969 4.539063h-130.6875c-2.476562 0-4.570312-2.082031-4.570312-4.539063v-130.691406c0-2.519531 2.050781-4.570312 4.570312-4.570312h46.257812c4.15625 0 7.527344-3.371094 7.527344-7.527344s-3.371094-7.527344-7.527344-7.527344h-46.257812c-10.824219 0-19.628906 8.804688-19.628906 19.625v130.691406c0 10.808594 8.804687 19.597656 19.628906 19.597656h130.6875c10.808594 0 19.601562-8.789062 19.601562-19.597656v-130.691406c0-10.824219-8.792968-19.625-19.601562-19.625zm0 0"/><path d="m415.425781 173.449219c4.160157 0 7.53125-3.371094 7.53125-7.53125 0-4.15625-3.371093-7.527344-7.53125-7.527344h-24.011719v-10.320313c0-15.152343-12.339843-27.484374-27.511718-27.484374h-10.320313v-24.011719c0-4.160157-3.371093-7.527344-7.527343-7.527344-4.160157 0-7.53125 3.371094-7.53125 7.527344v24.011719h-29.003907v-24.011719c0-4.160157-3.371093-7.527344-7.53125-7.527344-4.15625 0-7.527343 3.371094-7.527343 7.527344v24.011719h-30.945313v-24.011719c0-4.160157-3.371094-7.527344-7.527344-7.527344-4.160156 0-7.53125 3.371094-7.53125 7.527344v24.011719h-30.941406v-24.011719c0-4.160157-3.371094-7.527344-7.53125-7.527344-4.15625 0-7.527344 3.371094-7.527344 7.527344v24.011719h-29.007812v-24.011719c0-4.160157-3.371094-7.527344-7.527344-7.527344-4.160156 0-7.53125 3.371094-7.53125 7.527344v24.011719h-10.316406c-15.15625 0-27.484375 12.332031-27.484375 27.484374v10.320313h-24.015625c-4.160157 0-7.53125 3.371094-7.53125 7.527344 0 4.160156 3.371093 7.53125 7.53125 7.53125h24.011719v29.007812h-24.011719c-4.160157 0-7.53125 3.371094-7.53125 7.527344 0 4.160156 3.371093 7.527344 7.53125 7.527344h24.011719v30.945312h-24.011719c-4.160157 0-7.53125 3.371094-7.53125 7.527344 0 4.160156 3.371093 7.53125 7.53125 7.53125h24.011719v30.941406h-24.011719c-4.160157 0-7.53125 3.371094-7.53125 7.53125 0 4.15625 3.371093 7.527344 7.53125 7.527344h24.011719v29.007813h-24.011719c-4.160157 0-7.53125 3.371093-7.53125 7.527343 0 4.160157 3.371093 7.53125 7.53125 7.53125h24.011719v10.320313c0 15.167968 12.328124 27.511718 27.484374 27.511718h10.320313v24.011719c0 4.160157 3.371094 7.527344 7.527344 7.527344s7.527343-3.371094 7.527343-7.527344v-24.011719h29.007813v24.011719c0 4.160157 3.371094 7.527344 7.53125 7.527344 4.15625 0 7.527344-3.371094 7.527344-7.527344v-24.011719h30.941406v24.011719c0 4.160157 3.371094 7.527344 7.53125 7.527344 4.15625 0 7.527344-3.371094 7.527344-7.527344v-24.011719h30.945312v24.011719c0 4.160157 3.371094 7.527344 7.527344 7.527344 4.160156 0 7.53125-3.371094 7.53125-7.527344v-24.011719h29.007813v24.011719c0 4.160157 3.371093 7.527344 7.527343 7.527344 4.160157 0 7.527344-3.371094 7.527344-7.527344v-24.011719h10.320313c15.171874 0 27.511718-12.34375 27.511718-27.511718v-10.320313h24.015625c4.15625 0 7.527344-3.371093 7.527344-7.53125 0-4.15625-3.371094-7.527343-7.527344-7.527343h-24.015625v-29.007813h24.015625c4.15625 0 7.527344-3.371094 7.527344-7.527344 0-4.160156-3.371094-7.53125-7.527344-7.53125h-24.015625v-30.941406h24.015625c4.15625 0 7.527344-3.371094 7.527344-7.53125 0-4.15625-3.371094-7.527344-7.527344-7.527344h-24.015625v-30.945312h24.015625c4.15625 0 7.527344-3.371094 7.527344-7.527344 0-4.160156-3.371094-7.527344-7.527344-7.527344h-24.015625v-29.007812zm-51.523437 202.910156h-17.289063c-.183593-.015625-.371093-.027344-.558593-.027344-.191407 0-.375.011719-.5625.027344h-42.945313c-.1875-.015625-.371094-.027344-.5625-.027344-.1875 0-.375.011719-.558594.027344h-44.882812c-.183594-.015625-.371094-.027344-.558594-.027344-.191406 0-.375.011719-.5625.027344h-44.878906c-.1875-.015625-.371094-.027344-.5625-.027344-.1875 0-.375.011719-.558594.027344h-42.945313c-.1875-.015625-.371093-.027344-.5625-.027344-.1875 0-.375.011719-.5625.027344h-17.285156c-6.851562 0-12.425781-5.585937-12.425781-12.457031v-215.832032c0-6.851562 5.574219-12.425781 12.425781-12.425781h215.832032c6.867187 0 12.453124 5.574219 12.453124 12.425781v17.289063c-.011718.183594-.027343.371094-.027343.558594 0 .191406.015625.375.027343.5625v42.945312c-.011718.1875-.027343.371094-.027343.5625 0 .1875.015625.375.027343.558594v44.878906c-.011718.1875-.027343.371094-.027343.5625 0 .191407.015625.375.027343.5625v44.878907c-.011718.1875-.027343.371093-.027343.5625 0 .1875.015625.375.027343.558593v42.945313c-.011718.1875-.027343.371094-.027343.5625s.015625.375.027343.5625v17.285156c.003907 6.867188-5.582031 12.453125-12.449218 12.453125zm0 0"/></svg>